<?xml version="1.0" encoding="UTF-8"?>
<svg height="600" width="800" xmlns="http://www.w3.org/2000/svg" xmlns:xlink="http://www.w3.org/1999/xlink">
    <g id="Notes" font-family="'LucidaGrande', 'Lucida Grande', sans-serif" font-size="13">
        <rect fill="white" height="600.0" width="800.0" x="0.0" y="0.0" />
        <g font-size="13">
            <text x="18.0" y="176.0">Small</text>
            <text x="18.0" y="376.0">Medium</text>
            <text x="18.0" y="576.0">Large</text>
        </g>
        <g font-size="9">
            <text x="250.0" y="30.0">Ultralight</text>
            <text x="450.0" y="30.0">Regular</text>
            <text x="650.0" y="30.0">Black</text>
            <text id="template-version" fill="#505050" text-anchor="end" x="785.0" y="575.0">Template v.3.0</text>
            <a href="https://wangchujiang.com/#/app">
                <text fill="#505050" text-anchor="end" x="785.0" y="590.0">https://wangchujiang.com/#/app</text>
            </a>
        </g>
    </g>
    <g id="Guides" stroke="rgb(39, 170, 225)" stroke-width="0.5">
        <path id="Capline-S" d="M18,76 l800,0" />
        <path id="H-reference" d="M85,145.755 L87.685,145.755 L113.369,79.287 L114.052,79.287 L114.052,76 L112.148,76 L85,145.755 Z M95.693,121.536 L130.996,121.536 L130.263,119.313 L96.474,119.313 L95.693,121.536 Z M139.15,145.755 L141.787,145.755 L114.638,76 L113.466,76 L113.466,79.287 L139.15,145.755 Z" stroke="none" />
        <path id="Baseline-S" d="M18,146 l800,0" />
        <path id="left-margin-Ultralight-S" d="M216.5,56 l0,110" />
        <path id="right-margin-Ultralight-S" d="M313.5,56 l0,110" />
        <path id="left-margin-Regular-S" d="M416.5,56 l0,110" />
        <path id="right-margin-Regular-S" d="M513.5,56 l0,110" />
        <path id="left-margin-Black-S" d="M616.5,56 l0,110" />
        <path id="right-margin-Black-S" d="M713.5,56 l0,110" />
        <path id="Capline-M" d="M18,276 l800,0" />
        <path id="Baseline-M" d="M18,346 l800,0" />
        <path id="Capline-L" d="M18,476 l800,0" />
        <path id="Baseline-L" d="M18,546 l800,0" />
    </g>
    <g id="Symbols">
        <g id="Ultralight-S">
            <path d="M275.5,90 L275.5,104 L268.5,104 L268.5,90 L275.5,90 Z M289.5,76 L289.5,90 L282.5,90 L282.5,76 L289.5,76 Z M233.5,76 L226.5,76 L233.5,76 Z M226.5,76 L233.5,76 L233.5,146 L226.5,146 L226.5,76 Z M254.5,118 L261.5,118 L261.5,132 L254.5,132 L254.5,118 Z M282.5,118 L289.5,118 L289.5,146 L282.5,146 L282.5,118 Z" />
            <path d="M289.5,76 L303.5,76 L303.5,90 L289.5,90 L289.5,76 Z M233.5,76 L247.5,76 L247.5,90 L233.5,90 L233.5,76 Z" />
            <path d="M275.5,104 L275.5,90 L303.5,90 L303.5,104 L275.5,104 Z M233.5,104 L233.5,90 L261.5,90 L261.5,104 L233.5,104 Z" />
            <path d="M233.5,118 L233.5,104 L303.5,104 L303.5,118 Z" />
            <path d="M261.5,118 L275.5,118 L275.5,132 L261.5,132 L261.5,118 Z M289.5,118 L303.5,118 L303.5,132 L289.5,132 L289.5,118 Z M233.5,118 L247.5,118 L247.5,132 L233.5,132 L233.5,118 Z" />
            <path d="M289.5,132 L303.5,132 L303.5,146 L289.5,146 L289.5,132 Z M233.5,132 L247.5,132 L247.5,146 L233.5,146 L233.5,132 Z" />
        </g>
        <g id="Regular-S">
            <path d="M475.5,90 L475.5,104 L468.5,104 L468.5,90 L475.5,90 Z M489.5,76 L489.5,90 L482.5,90 L482.5,76 L489.5,76 Z M433.5,76 L426.5,76 L433.5,76 Z M426.5,76 L433.5,76 L433.5,146 L426.5,146 L426.5,76 Z M454.5,118 L461.5,118 L461.5,132 L454.5,132 L454.5,118 Z M482.5,118 L489.5,118 L489.5,146 L482.5,146 L482.5,118 Z" />
            <path d="M489.5,76 L503.5,76 L503.5,90 L489.5,90 L489.5,76 Z M433.5,76 L447.5,76 L447.5,90 L433.5,90 L433.5,76 Z" />
            <path d="M475.5,104 L475.5,90 L503.5,90 L503.5,104 L475.5,104 Z M433.5,104 L433.5,90 L461.5,90 L461.5,104 L433.5,104 Z" />
            <path d="M433.5,118 L433.5,104 L503.5,104 L503.5,118 Z" />
            <path d="M461.5,118 L475.5,118 L475.5,132 L461.5,132 L461.5,118 Z M489.5,118 L503.5,118 L503.5,132 L489.5,132 L489.5,118 Z M433.5,118 L447.5,118 L447.5,132 L433.5,132 L433.5,118 Z" />
            <path d="M489.5,132 L503.5,132 L503.5,146 L489.5,146 L489.5,132 Z M433.5,132 L447.5,132 L447.5,146 L433.5,146 L433.5,132 Z" />
        </g>
        <g id="Black-S">
            <path d="M675.5,90 L675.5,104 L668.5,104 L668.5,90 L675.5,90 Z M689.5,76 L689.5,90 L682.5,90 L682.5,76 L689.5,76 Z M633.5,76 L626.5,76 L633.5,76 Z M626.5,76 L633.5,76 L633.5,146 L626.5,146 L626.5,76 Z M654.5,118 L661.5,118 L661.5,132 L654.5,132 L654.5,118 Z M682.5,118 L689.5,118 L689.5,146 L682.5,146 L682.5,118 Z" />
            <path d="M689.5,76 L703.5,76 L703.5,90 L689.5,90 L689.5,76 Z M633.5,76 L647.5,76 L647.5,90 L633.5,90 L633.5,76 Z" />
            <path d="M675.5,104 L675.5,90 L703.5,90 L703.5,104 L675.5,104 Z M633.5,104 L633.5,90 L661.5,90 L661.5,104 L633.5,104 Z" />
            <path d="M633.5,118 L633.5,104 L703.5,104 L703.5,118 Z" />
            <path d="M661.5,118 L675.5,118 L675.5,132 L661.5,132 L661.5,118 Z M689.5,118 L703.5,118 L703.5,132 L689.5,132 L689.5,118 Z M633.5,118 L647.5,118 L647.5,132 L633.5,132 L633.5,118 Z" />
            <path d="M689.5,132 L703.5,132 L703.5,146 L689.5,146 L689.5,132 Z M633.5,132 L647.5,132 L647.5,146 L633.5,146 L633.5,132 Z" />
        </g>
    </g>
</svg>