<?xml version="1.0" encoding="UTF-8"?>
<svg height="600" width="800" xmlns="http://www.w3.org/2000/svg" xmlns:xlink="http://www.w3.org/1999/xlink">
    <g id="Notes" font-family="'LucidaGrande', 'Lucida Grande', sans-serif" font-size="13">
        <rect fill="white" height="600.0" width="800.0" x="0.0" y="0.0" />
        <g font-size="13">
            <text x="18.0" y="176.0">Small</text>
            <text x="18.0" y="376.0">Medium</text>
            <text x="18.0" y="576.0">Large</text>
        </g>
        <g font-size="9">
            <text x="250.0" y="30.0">Ultralight</text>
            <text x="450.0" y="30.0">Regular</text>
            <text x="650.0" y="30.0">Black</text>
            <text id="template-version" fill="#505050" text-anchor="end" x="785.0" y="575.0">Template v.3.0</text>
            <a href="https://wangchujiang.com/#/app">
                <text fill="#505050" text-anchor="end" x="785.0" y="590.0">https://wangchujiang.com/#/app</text>
            </a>
        </g>
    </g>
    <g id="Guides" stroke="rgb(39, 170, 225)" stroke-width="0.5">
        <path id="Capline-S" d="M18,76 l800,0" />
        <path id="H-reference" d="M85,145.755 L87.685,145.755 L113.369,79.287 L114.052,79.287 L114.052,76 L112.148,76 L85,145.755 Z M95.693,121.536 L130.996,121.536 L130.263,119.313 L96.474,119.313 L95.693,121.536 Z M139.15,145.755 L141.787,145.755 L114.638,76 L113.466,76 L113.466,79.287 L139.15,145.755 Z" stroke="none" />
        <path id="Baseline-S" d="M18,146 l800,0" />
        <path id="left-margin-Ultralight-S" d="M221,56 l0,110" />
        <path id="right-margin-Ultralight-S" d="M309,56 l0,110" />
        <path id="left-margin-Regular-S" d="M421,56 l0,110" />
        <path id="right-margin-Regular-S" d="M509,56 l0,110" />
        <path id="left-margin-Black-S" d="M621,56 l0,110" />
        <path id="right-margin-Black-S" d="M709,56 l0,110" />
        <path id="Capline-M" d="M18,276 l800,0" />
        <path id="Baseline-M" d="M18,346 l800,0" />
        <path id="Capline-L" d="M18,476 l800,0" />
        <path id="Baseline-L" d="M18,546 l800,0" />
    </g>
    <g id="Symbols">
        <g id="Ultralight-S">
            <path d="M265.127,76.001 C251.641,75.879 240.627,86.501 240.501,99.734 C240.378,112.971 251.193,123.786 264.679,123.908 L273.148,123.908 L273.148,114.927 L265.127,114.927 C256.702,115.025 249.797,108.397 249.699,100.123 C249.597,91.856 256.352,85.08 264.777,84.982 L265.127,84.982 C273.551,84.982 280.379,91.684 280.404,99.955 L280.404,122.022 C280.404,130.219 273.6,136.897 265.273,136.998 C261.301,136.97 257.494,135.399 254.658,132.616 L248.18,138.979 C252.7,143.42 258.766,145.936 265.102,146 L265.424,146 C278.734,145.804 289.427,135.21 289.5,122.144 L289.5,99.395 C289.175,86.371 278.36,76.001 265.127,76.001 Z" />
        </g>
        <g id="Regular-S">
            <path d="M465.127,76.001 C451.641,75.879 440.627,86.501 440.501,99.734 C440.378,112.971 451.193,123.786 464.679,123.908 L473.148,123.908 L473.148,114.927 L465.127,114.927 C456.702,115.025 449.797,108.397 449.699,100.123 C449.597,91.856 456.352,85.08 464.777,84.982 L465.127,84.982 C473.551,84.982 480.379,91.684 480.404,99.955 L480.404,122.022 C480.404,130.219 473.6,136.897 465.274,136.998 C461.301,136.97 457.494,135.399 454.658,132.616 L448.18,138.979 C452.7,143.42 458.766,145.936 465.102,146 L465.424,146 C478.734,145.804 489.427,135.21 489.5,122.144 L489.5,99.395 C489.175,86.371 478.36,76.001 465.127,76.001 Z" />
        </g>
        <g id="Black-S">
            <path d="M665.127,76.001 C651.641,75.879 640.627,86.501 640.501,99.734 C640.378,112.971 651.193,123.786 664.679,123.908 L673.148,123.908 L673.148,114.927 L665.127,114.927 C656.702,115.025 649.797,108.397 649.699,100.123 C649.597,91.856 656.352,85.08 664.777,84.982 L665.127,84.982 C673.551,84.982 680.379,91.684 680.404,99.955 L680.404,122.022 C680.404,130.219 673.6,136.897 665.274,136.998 C661.301,136.97 657.494,135.399 654.658,132.616 L648.18,138.979 C652.7,143.42 658.766,145.936 665.102,146 L665.424,146 C678.734,145.804 689.427,135.21 689.5,122.144 L689.5,99.395 C689.175,86.371 678.36,76.001 665.127,76.001 Z" />
        </g>
    </g>
</svg>