<?xml version="1.0" encoding="UTF-8"?>
<svg height="600" width="800" xmlns="http://www.w3.org/2000/svg" xmlns:xlink="http://www.w3.org/1999/xlink">
    <g id="Notes" font-family="'LucidaGrande', 'Lucida Grande', sans-serif" font-size="13">
        <rect fill="white" height="600.0" width="800.0" x="0.0" y="0.0" />
        <g font-size="13">
            <text x="18.0" y="176.0">Small</text>
            <text x="18.0" y="376.0">Medium</text>
            <text x="18.0" y="576.0">Large</text>
        </g>
        <g font-size="9">
            <text x="250.0" y="30.0">Ultralight</text>
            <text x="450.0" y="30.0">Regular</text>
            <text x="650.0" y="30.0">Black</text>
            <text id="template-version" fill="#505050" text-anchor="end" x="785.0" y="575.0">Template v.3.0</text>
            <a href="https://wangchujiang.com/#/app">
                <text fill="#505050" text-anchor="end" x="785.0" y="590.0">https://wangchujiang.com/#/app</text>
            </a>
        </g>
    </g>
    <g id="Guides" stroke="rgb(39, 170, 225)" stroke-width="0.5">
        <path id="Capline-S" d="M18,76 l800,0" />
        <path id="H-reference" d="M85,145.755 L87.685,145.755 L113.369,79.287 L114.052,79.287 L114.052,76 L112.148,76 L85,145.755 Z M95.693,121.536 L130.996,121.536 L130.263,119.313 L96.474,119.313 L95.693,121.536 Z M139.15,145.755 L141.787,145.755 L114.638,76 L113.466,76 L113.466,79.287 L139.15,145.755 Z" stroke="none" />
        <path id="Baseline-S" d="M18,146 l800,0" />
        <path id="left-margin-Ultralight-S" d="M211,56 l0,110" />
        <path id="right-margin-Ultralight-S" d="M319,56 l0,110" />
        <path id="left-margin-Regular-S" d="M411,56 l0,110" />
        <path id="right-margin-Regular-S" d="M519,56 l0,110" />
        <path id="left-margin-Black-S" d="M611,56 l0,110" />
        <path id="right-margin-Black-S" d="M719,56 l0,110" />
        <path id="Capline-M" d="M18,276 l800,0" />
        <path id="Baseline-M" d="M18,346 l800,0" />
        <path id="Capline-L" d="M18,476 l800,0" />
        <path id="Baseline-L" d="M18,546 l800,0" />
    </g>
    <g id="Symbols">
        <g id="Ultralight-S">
            <path d="M308.074,84.057 C307.143,83.602 306.739,84.471 306.197,84.915 C306.01,85.058 305.852,85.245 305.694,85.413 C304.331,86.869 302.739,87.822 300.66,87.709 C297.621,87.54 295.025,88.493 292.729,90.818 C292.242,87.951 290.621,86.242 288.157,85.142 C286.867,84.57 285.561,84.002 284.656,82.759 C284.025,81.875 283.853,80.889 283.537,79.921 C283.336,79.334 283.134,78.736 282.463,78.637 C281.73,78.524 281.444,79.136 281.158,79.649 C280.01,81.747 279.566,84.057 279.61,86.396 C279.709,91.661 281.931,95.856 286.35,98.837 C286.852,99.178 286.98,99.522 286.823,100.021 C286.522,101.048 286.163,102.045 285.847,103.075 C285.646,103.732 285.345,103.871 284.641,103.589 C282.262,102.566 280.102,101.098 278.276,99.262 C275.133,96.226 272.295,92.875 268.754,90.25 C267.933,89.643 267.09,89.067 266.227,88.523 C262.616,85.014 266.704,82.132 267.65,81.791 C268.64,81.431 267.991,80.207 264.794,80.221 C261.596,80.236 258.67,81.303 254.941,82.729 C254.387,82.942 253.817,83.11 253.236,83.232 C249.752,82.575 246.188,82.449 242.666,82.858 C235.754,83.628 230.236,86.898 226.177,92.475 C221.3,99.178 220.153,106.797 221.557,114.739 C223.035,123.113 227.31,130.047 233.877,135.466 C240.689,141.087 248.532,143.84 257.482,143.312 C262.916,143.001 268.97,142.271 275.793,136.493 C277.517,137.351 279.321,137.692 282.32,137.948 C284.63,138.165 286.852,137.838 288.571,137.479 C291.266,136.907 291.079,134.41 290.108,133.955 C282.206,130.274 283.941,131.774 282.36,130.56 C286.379,125.808 292.429,120.873 294.797,104.883 C294.981,103.611 294.823,102.811 294.797,101.785 C294.783,101.161 294.926,100.916 295.641,100.846 C297.624,100.64 299.549,100.049 301.306,99.104 C306.424,96.307 308.492,91.716 308.98,86.209 C309.053,85.366 308.965,84.497 308.074,84.053 Z M263.463,133.622 C255.803,127.601 252.089,125.617 250.556,125.702 C249.119,125.79 249.379,127.429 249.695,128.499 C250.025,129.555 250.454,130.281 251.055,131.209 C251.473,131.821 251.759,132.734 250.641,133.42 C248.173,134.945 243.887,132.907 243.685,132.808 C238.695,129.867 234.519,125.988 231.582,120.682 C228.744,115.575 227.094,110.097 226.822,104.249 C226.749,102.833 227.163,102.335 228.571,102.078 C230.42,101.724 232.314,101.676 234.178,101.935 C241.995,103.079 248.646,106.573 254.226,112.106 C257.409,115.259 259.818,119.025 262.3,122.706 C264.94,126.615 267.778,130.34 271.393,133.391 C272.669,134.461 273.685,135.275 274.66,135.873 C271.72,136.203 266.814,136.276 263.463,133.622 Z M267.129,110.009 C267.128,109.639 267.309,109.292 267.613,109.082 C267.917,108.872 268.305,108.825 268.651,108.956 C269.095,109.116 269.39,109.54 269.384,110.012 C269.385,110.313 269.265,110.602 269.052,110.813 C268.838,111.025 268.548,111.142 268.247,111.138 C267.949,111.139 267.663,111.02 267.453,110.808 C267.243,110.595 267.128,110.307 267.133,110.009 Z M278.532,115.861 C277.799,116.158 277.069,116.414 276.369,116.447 C275.315,116.484 274.282,116.155 273.443,115.516 C272.438,114.673 271.72,114.203 271.419,112.737 C271.315,112.02 271.335,111.291 271.478,110.581 C271.734,109.382 271.448,108.612 270.602,107.915 C269.916,107.343 269.04,107.185 268.079,107.185 C267.75,107.166 267.431,107.068 267.148,106.899 C266.744,106.702 266.414,106.203 266.73,105.587 C266.832,105.389 267.316,104.905 267.434,104.817 C268.739,104.076 270.246,104.318 271.635,104.876 C272.926,105.404 273.901,106.372 275.306,107.743 C276.739,109.396 277,109.855 277.817,111.094 C278.463,112.066 279.049,113.063 279.449,114.203 C279.695,114.918 279.379,115.501 278.532,115.861 Z" />
        </g>
        <g id="Regular-S">
            <path d="M508.074,84.057 C507.143,83.602 506.739,84.471 506.197,84.915 C506.01,85.058 505.852,85.245 505.694,85.413 C504.331,86.869 502.739,87.822 500.66,87.709 C497.621,87.54 495.025,88.493 492.729,90.818 C492.242,87.951 490.621,86.242 488.157,85.142 C486.867,84.57 485.561,84.002 484.656,82.759 C484.025,81.875 483.853,80.889 483.537,79.921 C483.336,79.334 483.134,78.736 482.463,78.637 C481.73,78.524 481.444,79.136 481.158,79.649 C480.01,81.747 479.566,84.057 479.61,86.396 C479.709,91.661 481.931,95.856 486.35,98.837 C486.852,99.178 486.98,99.522 486.823,100.021 C486.522,101.048 486.163,102.045 485.847,103.075 C485.646,103.732 485.345,103.871 484.641,103.589 C482.262,102.566 480.102,101.098 478.276,99.262 C475.133,96.226 472.295,92.875 468.754,90.25 C467.933,89.643 467.09,89.067 466.227,88.523 C462.616,85.014 466.704,82.132 467.65,81.791 C468.64,81.431 467.991,80.207 464.794,80.221 C461.596,80.236 458.67,81.303 454.941,82.729 C454.387,82.942 453.817,83.11 453.236,83.232 C449.752,82.575 446.188,82.449 442.666,82.858 C435.754,83.628 430.236,86.898 426.177,92.475 C421.3,99.178 420.153,106.797 421.557,114.739 C423.035,123.113 427.31,130.047 433.877,135.466 C440.689,141.087 448.532,143.84 457.482,143.312 C462.916,143.001 468.97,142.271 475.793,136.493 C477.517,137.351 479.321,137.692 482.32,137.948 C484.63,138.165 486.852,137.838 488.571,137.479 C491.266,136.907 491.079,134.41 490.108,133.955 C482.206,130.274 483.941,131.774 482.36,130.56 C486.379,125.808 492.429,120.873 494.797,104.883 C494.981,103.611 494.823,102.811 494.797,101.785 C494.783,101.161 494.926,100.916 495.641,100.846 C497.624,100.64 499.549,100.049 501.306,99.104 C506.424,96.307 508.492,91.716 508.98,86.209 C509.053,85.366 508.965,84.497 508.074,84.053 Z M463.463,133.622 C455.803,127.601 452.089,125.617 450.556,125.702 C449.119,125.79 449.379,127.429 449.695,128.499 C450.025,129.555 450.454,130.281 451.055,131.209 C451.473,131.821 451.759,132.734 450.641,133.42 C448.173,134.945 443.887,132.907 443.685,132.808 C438.695,129.867 434.519,125.988 431.582,120.682 C428.744,115.575 427.094,110.097 426.822,104.249 C426.749,102.833 427.163,102.335 428.571,102.078 C430.42,101.724 432.314,101.676 434.178,101.935 C441.995,103.079 448.646,106.573 454.227,112.106 C457.409,115.259 459.818,119.025 462.3,122.706 C464.94,126.615 467.778,130.34 471.393,133.391 C472.669,134.461 473.685,135.275 474.66,135.873 C471.72,136.203 466.814,136.276 463.463,133.622 Z M467.129,110.009 C467.128,109.639 467.309,109.292 467.613,109.082 C467.917,108.872 468.305,108.825 468.651,108.956 C469.095,109.116 469.39,109.54 469.384,110.012 C469.385,110.313 469.265,110.602 469.052,110.813 C468.838,111.025 468.548,111.142 468.247,111.138 C467.949,111.139 467.663,111.02 467.453,110.808 C467.243,110.595 467.128,110.307 467.133,110.009 Z M478.532,115.861 C477.799,116.158 477.069,116.414 476.369,116.447 C475.315,116.484 474.282,116.155 473.443,115.516 C472.438,114.673 471.72,114.203 471.419,112.737 C471.315,112.02 471.335,111.291 471.478,110.581 C471.734,109.382 471.448,108.612 470.602,107.915 C469.916,107.343 469.04,107.185 468.079,107.185 C467.75,107.166 467.431,107.068 467.148,106.899 C466.744,106.702 466.414,106.203 466.73,105.587 C466.832,105.389 467.316,104.905 467.434,104.817 C468.739,104.076 470.246,104.318 471.635,104.876 C472.926,105.404 473.901,106.372 475.306,107.743 C476.739,109.396 477,109.855 477.817,111.094 C478.463,112.066 479.049,113.063 479.449,114.203 C479.695,114.918 479.379,115.501 478.532,115.861 Z" />
        </g>
        <g id="Black-S">
            <path d="M708.074,84.057 C707.143,83.602 706.739,84.471 706.197,84.915 C706.01,85.058 705.852,85.245 705.694,85.413 C704.331,86.869 702.739,87.822 700.66,87.709 C697.621,87.54 695.025,88.493 692.729,90.818 C692.242,87.951 690.621,86.242 688.157,85.142 C686.867,84.57 685.561,84.002 684.656,82.759 C684.025,81.875 683.853,80.889 683.537,79.921 C683.336,79.334 683.134,78.736 682.463,78.637 C681.73,78.524 681.444,79.136 681.158,79.649 C680.01,81.747 679.566,84.057 679.61,86.396 C679.709,91.661 681.931,95.856 686.349,98.837 C686.852,99.178 686.98,99.522 686.823,100.021 C686.522,101.048 686.163,102.045 685.847,103.075 C685.646,103.732 685.345,103.871 684.641,103.589 C682.262,102.566 680.102,101.098 678.276,99.262 C675.133,96.226 672.295,92.875 668.754,90.25 C667.933,89.643 667.09,89.067 666.227,88.523 C662.616,85.014 666.704,82.132 667.65,81.791 C668.64,81.431 667.991,80.207 664.794,80.221 C661.596,80.236 658.67,81.303 654.941,82.729 C654.387,82.942 653.817,83.11 653.236,83.232 C649.752,82.575 646.188,82.449 642.666,82.858 C635.754,83.628 630.236,86.898 626.177,92.475 C621.3,99.178 620.153,106.797 621.557,114.739 C623.035,123.113 627.31,130.047 633.877,135.466 C640.689,141.087 648.532,143.84 657.482,143.312 C662.916,143.001 668.97,142.271 675.793,136.493 C677.517,137.351 679.321,137.692 682.32,137.948 C684.63,138.165 686.852,137.838 688.571,137.479 C691.266,136.907 691.079,134.41 690.108,133.955 C682.206,130.274 683.941,131.774 682.36,130.56 C686.379,125.808 692.429,120.873 694.797,104.883 C694.981,103.611 694.823,102.811 694.797,101.785 C694.783,101.161 694.926,100.916 695.641,100.846 C697.624,100.64 699.549,100.049 701.306,99.104 C706.424,96.307 708.492,91.716 708.98,86.209 C709.053,85.366 708.965,84.497 708.074,84.053 Z M663.463,133.622 C655.803,127.601 652.089,125.617 650.556,125.702 C649.119,125.79 649.379,127.429 649.695,128.499 C650.025,129.555 650.454,130.281 651.055,131.209 C651.473,131.821 651.759,132.734 650.641,133.42 C648.173,134.945 643.887,132.907 643.685,132.808 C638.695,129.867 634.519,125.988 631.582,120.682 C628.744,115.575 627.094,110.097 626.822,104.249 C626.749,102.833 627.163,102.335 628.571,102.078 C630.42,101.724 632.314,101.676 634.178,101.935 C641.995,103.079 648.646,106.573 654.227,112.106 C657.409,115.259 659.818,119.025 662.3,122.706 C664.94,126.615 667.778,130.34 671.393,133.391 C672.669,134.461 673.685,135.275 674.66,135.873 C671.72,136.203 666.814,136.276 663.463,133.622 Z M667.129,110.009 C667.128,109.639 667.309,109.292 667.613,109.082 C667.917,108.872 668.305,108.825 668.651,108.956 C669.096,109.116 669.39,109.54 669.384,110.012 C669.385,110.313 669.265,110.602 669.052,110.813 C668.838,111.025 668.548,111.142 668.247,111.138 C667.949,111.139 667.663,111.02 667.453,110.808 C667.243,110.595 667.128,110.307 667.133,110.009 Z M678.532,115.861 C677.799,116.158 677.069,116.414 676.369,116.447 C675.315,116.484 674.282,116.155 673.443,115.516 C672.438,114.673 671.72,114.203 671.419,112.737 C671.315,112.02 671.335,111.291 671.478,110.581 C671.734,109.382 671.448,108.612 670.602,107.915 C669.916,107.343 669.04,107.185 668.079,107.185 C667.75,107.166 667.43,107.068 667.148,106.899 C666.744,106.702 666.414,106.203 666.73,105.587 C666.832,105.389 667.316,104.905 667.434,104.817 C668.739,104.076 670.246,104.318 671.635,104.876 C672.926,105.404 673.901,106.372 675.306,107.743 C676.739,109.396 677,109.855 677.817,111.094 C678.463,112.066 679.049,113.063 679.449,114.203 C679.695,114.918 679.379,115.501 678.532,115.861 Z" />
        </g>
    </g>
</svg>