<?xml version="1.0" encoding="UTF-8"?>
<svg height="600" width="800" xmlns="http://www.w3.org/2000/svg" xmlns:xlink="http://www.w3.org/1999/xlink">
    <g id="Notes" font-family="'LucidaGrande', 'Lucida Grande', sans-serif" font-size="13">
        <rect fill="white" height="600.0" width="800.0" x="0.0" y="0.0" />
        <g font-size="13">
            <text x="18.0" y="176.0">Small</text>
            <text x="18.0" y="376.0">Medium</text>
            <text x="18.0" y="576.0">Large</text>
        </g>
        <g font-size="9">
            <text x="250.0" y="30.0">Ultralight</text>
            <text x="450.0" y="30.0">Regular</text>
            <text x="650.0" y="30.0">Black</text>
            <text id="template-version" fill="#505050" text-anchor="end" x="785.0" y="575.0">Template v.3.0</text>
            <a href="https://wangchujiang.com/#/app">
                <text fill="#505050" text-anchor="end" x="785.0" y="590.0">https://wangchujiang.com/#/app</text>
            </a>
        </g>
    </g>
    <g id="Guides" stroke="rgb(39, 170, 225)" stroke-width="0.5">
        <path id="Capline-S" d="M18,76 l800,0" />
        <path id="H-reference" d="M85,145.755 L87.685,145.755 L113.369,79.287 L114.052,79.287 L114.052,76 L112.148,76 L85,145.755 Z M95.693,121.536 L130.996,121.536 L130.263,119.313 L96.474,119.313 L95.693,121.536 Z M139.15,145.755 L141.787,145.755 L114.638,76 L113.466,76 L113.466,79.287 L139.15,145.755 Z" stroke="none" />
        <path id="Baseline-S" d="M18,146 l800,0" />
        <path id="left-margin-Ultralight-S" d="M218.382,56 l0,110" />
        <path id="right-margin-Ultralight-S" d="M311.618,56 l0,110" />
        <path id="left-margin-Regular-S" d="M418.382,56 l0,110" />
        <path id="right-margin-Regular-S" d="M511.618,56 l0,110" />
        <path id="left-margin-Black-S" d="M618.382,56 l0,110" />
        <path id="right-margin-Black-S" d="M711.618,56 l0,110" />
        <path id="Capline-M" d="M18,276 l800,0" />
        <path id="Baseline-M" d="M18,346 l800,0" />
        <path id="Capline-L" d="M18,476 l800,0" />
        <path id="Baseline-L" d="M18,546 l800,0" />
    </g>
    <g id="Symbols">
        <g id="Ultralight-S">
            <path d="M245.144,139.271 C241.751,134.843 241.76,126.262 244.897,116.51 L230.991,108.484 C229.528,107.661 228.559,106.175 228.397,104.505 C228.344,103.862 228.427,103.215 228.641,102.607 C229.477,100.218 230.537,97.914 231.806,95.725 C242.413,77.355 265.116,70.611 282.52,80.657 C283.923,81.468 285.022,82.701 285.818,84.27 C288.214,88.984 287.909,96.769 285.104,105.49 L299.01,113.519 C300.045,114.117 300.829,115.02 301.256,116.058 C301.7,117.119 301.737,118.307 301.36,119.393 C300.524,121.782 299.465,124.086 298.195,126.275 C287.588,144.645 264.885,151.389 247.481,141.343 C246.572,140.813 245.778,140.108 245.144,139.268 Z M279.004,119.085 C272.678,130.043 261.281,135.307 253.545,130.84 C249.679,128.609 247.46,124.364 246.999,119.311 C246.709,116.153 247.109,112.68 248.22,109.18 C248.882,107.092 249.798,104.999 250.972,102.958 L250.997,102.915 C257.323,91.96 268.72,86.696 276.456,91.16 C278.388,92.277 279.904,93.891 281.003,95.86 C284.012,101.267 283.816,109.332 280.133,116.958 C279.794,117.66 279.425,118.353 279.029,119.042 L279.004,119.085 Z" />
        </g>
        <g id="Regular-S">
            <path d="M445.144,139.271 C441.751,134.843 441.76,126.262 444.897,116.51 L430.991,108.484 C429.528,107.661 428.559,106.175 428.397,104.505 C428.344,103.862 428.427,103.215 428.641,102.607 C429.477,100.218 430.537,97.914 431.806,95.725 C442.413,77.355 465.116,70.611 482.52,80.657 C483.923,81.468 485.022,82.701 485.818,84.27 C488.214,88.984 487.909,96.769 485.104,105.49 L499.01,113.519 C500.045,114.117 500.829,115.02 501.256,116.058 C501.7,117.119 501.737,118.307 501.36,119.393 C500.524,121.782 499.465,124.086 498.195,126.275 C487.588,144.645 464.885,151.389 447.481,141.343 C446.572,140.813 445.778,140.108 445.144,139.268 Z M479.004,119.085 C472.678,130.043 461.281,135.307 453.545,130.84 C449.679,128.609 447.46,124.364 446.999,119.311 C446.709,116.153 447.109,112.68 448.22,109.18 C448.882,107.092 449.798,104.999 450.972,102.958 L450.997,102.915 C457.323,91.96 468.72,86.696 476.456,91.16 C478.388,92.277 479.904,93.891 481.003,95.86 C484.012,101.267 483.816,109.332 480.133,116.958 C479.794,117.66 479.425,118.353 479.029,119.042 L479.004,119.085 Z" />
        </g>
        <g id="Black-S">
            <path d="M645.144,139.271 C641.751,134.843 641.76,126.262 644.897,116.51 L630.991,108.484 C629.528,107.661 628.559,106.175 628.397,104.505 C628.344,103.862 628.427,103.215 628.641,102.607 C629.477,100.218 630.537,97.914 631.806,95.725 C642.413,77.355 665.116,70.611 682.52,80.657 C683.923,81.468 685.022,82.701 685.818,84.27 C688.214,88.984 687.909,96.769 685.104,105.49 L699.01,113.519 C700.045,114.117 700.829,115.02 701.256,116.058 C701.7,117.119 701.737,118.307 701.36,119.393 C700.524,121.782 699.465,124.086 698.195,126.275 C687.588,144.645 664.885,151.389 647.481,141.343 C646.572,140.813 645.778,140.108 645.144,139.268 Z M679.004,119.085 C672.678,130.043 661.281,135.307 653.545,130.84 C649.679,128.609 647.46,124.364 646.999,119.311 C646.709,116.153 647.109,112.68 648.22,109.18 C648.882,107.092 649.798,104.999 650.972,102.958 L650.997,102.915 C657.323,91.96 668.72,86.696 676.456,91.16 C678.388,92.277 679.904,93.891 681.003,95.86 C684.012,101.267 683.816,109.332 680.133,116.958 C679.794,117.66 679.425,118.353 679.029,119.042 L679.004,119.085 Z" />
        </g>
    </g>
</svg>