<?xml version="1.0" encoding="UTF-8"?>
<svg height="600" width="800" xmlns="http://www.w3.org/2000/svg" xmlns:xlink="http://www.w3.org/1999/xlink">
    <g id="Notes" font-family="'LucidaGrande', 'Lucida Grande', sans-serif" font-size="13">
        <rect fill="white" height="600.0" width="800.0" x="0.0" y="0.0" />
        <g font-size="13">
            <text x="18.0" y="176.0">Small</text>
            <text x="18.0" y="376.0">Medium</text>
            <text x="18.0" y="576.0">Large</text>
        </g>
        <g font-size="9">
            <text x="250.0" y="30.0">Ultralight</text>
            <text x="450.0" y="30.0">Regular</text>
            <text x="650.0" y="30.0">Black</text>
            <text id="template-version" fill="#505050" text-anchor="end" x="785.0" y="575.0">Template v.3.0</text>
            <a href="https://wangchujiang.com/#/app">
                <text fill="#505050" text-anchor="end" x="785.0" y="590.0">https://wangchujiang.com/#/app</text>
            </a>
        </g>
    </g>
    <g id="Guides" stroke="rgb(39, 170, 225)" stroke-width="0.5">
        <path id="Capline-S" d="M18,76 l800,0" />
        <path id="H-reference" d="M85,145.755 L87.685,145.755 L113.369,79.287 L114.052,79.287 L114.052,76 L112.148,76 L85,145.755 Z M95.693,121.536 L130.996,121.536 L130.263,119.313 L96.474,119.313 L95.693,121.536 Z M139.15,145.755 L141.787,145.755 L114.638,76 L113.466,76 L113.466,79.287 L139.15,145.755 Z" stroke="none" />
        <path id="Baseline-S" d="M18,146 l800,0" />
        <path id="left-margin-Ultralight-S" d="M219.995,56 l0,110" />
        <path id="right-margin-Ultralight-S" d="M310.005,56 l0,110" />
        <path id="left-margin-Regular-S" d="M419.995,56 l0,110" />
        <path id="right-margin-Regular-S" d="M510.005,56 l0,110" />
        <path id="left-margin-Black-S" d="M619.995,56 l0,110" />
        <path id="right-margin-Black-S" d="M710.005,56 l0,110" />
        <path id="Capline-M" d="M18,276 l800,0" />
        <path id="Baseline-M" d="M18,346 l800,0" />
        <path id="Capline-L" d="M18,476 l800,0" />
        <path id="Baseline-L" d="M18,546 l800,0" />
    </g>
    <g id="Symbols">
        <g id="Ultralight-S">
            <path d="M252.678,117.685 C254.562,117.685 258.311,117.579 263.491,115.447 C269.528,112.962 281.541,108.446 290.206,103.813 C296.269,100.573 298.926,96.284 298.926,90.511 C298.926,86.662 297.396,82.971 294.674,80.249 C291.952,77.528 288.261,75.999 284.411,76 L250.835,76 C239.325,76.002 229.995,85.333 229.995,96.844 C229.995,108.354 238.73,117.685 252.678,117.685 Z" />
            <path d="M258.355,132.04 C258.355,126.396 261.752,121.308 266.964,119.145 L277.539,114.753 C288.234,110.317 300.005,118.177 300.005,129.758 C300.005,134.066 298.294,138.198 295.247,141.244 C292.2,144.29 288.068,146.001 283.76,146 L272.313,145.997 C268.611,145.997 265.06,144.526 262.443,141.908 C259.825,139.289 258.355,135.739 258.356,132.036 Z" />
            <path d="M242.011,120.431 C238.824,120.43 235.767,121.696 233.513,123.949 C231.26,126.203 229.994,129.26 229.995,132.447 L229.995,134.003 C230.101,140.562 235.449,145.824 242.009,145.824 C248.57,145.824 253.917,140.562 254.024,134.003 L254.024,132.444 C254.024,125.809 248.646,120.431 242.011,120.431 Z" />
        </g>
        <g id="Regular-S">
            <path d="M452.678,117.685 C454.562,117.685 458.311,117.579 463.491,115.447 C469.528,112.962 481.541,108.446 490.206,103.813 C496.269,100.573 498.926,96.284 498.926,90.511 C498.926,86.662 497.396,82.971 494.674,80.249 C491.952,77.528 488.261,75.999 484.411,76 L450.835,76 C439.325,76.002 429.995,85.333 429.995,96.844 C429.995,108.354 438.73,117.685 452.678,117.685 Z" />
            <path d="M458.355,132.04 C458.355,126.396 461.752,121.308 466.964,119.145 L477.539,114.753 C488.234,110.317 500.005,118.177 500.005,129.758 C500.005,134.066 498.294,138.198 495.247,141.244 C492.2,144.29 488.068,146.001 483.76,146 L472.313,145.997 C468.611,145.997 465.06,144.526 462.443,141.908 C459.825,139.289 458.355,135.739 458.356,132.036 Z" />
            <path d="M442.011,120.431 C438.824,120.43 435.767,121.696 433.513,123.949 C431.26,126.203 429.994,129.26 429.995,132.447 L429.995,134.003 C430.101,140.562 435.449,145.824 442.009,145.824 C448.57,145.824 453.917,140.562 454.024,134.003 L454.024,132.444 C454.024,125.809 448.646,120.431 442.011,120.431 Z" />
        </g>
        <g id="Black-S">
            <path d="M652.678,117.685 C654.562,117.685 658.31,117.579 663.491,115.447 C669.528,112.962 681.541,108.446 690.206,103.813 C696.269,100.573 698.926,96.284 698.926,90.511 C698.926,86.662 697.396,82.971 694.674,80.249 C691.952,77.528 688.261,75.999 684.411,76 L650.835,76 C639.325,76.002 629.995,85.333 629.995,96.844 C629.995,108.354 638.73,117.685 652.678,117.685 Z" />
            <path d="M658.355,132.04 C658.355,126.396 661.752,121.308 666.964,119.145 L677.539,114.753 C688.234,110.317 700.005,118.177 700.005,129.758 C700.005,134.066 698.294,138.198 695.247,141.244 C692.2,144.29 688.068,146.001 683.76,146 L672.313,145.997 C668.611,145.997 665.06,144.526 662.443,141.908 C659.825,139.289 658.355,135.739 658.356,132.036 Z" />
            <path d="M642.011,120.431 C638.824,120.43 635.767,121.696 633.513,123.949 C631.26,126.203 629.994,129.26 629.995,132.447 L629.995,134.003 C630.101,140.562 635.449,145.824 642.009,145.824 C648.57,145.824 653.917,140.562 654.024,134.003 L654.024,132.444 C654.024,125.809 648.646,120.431 642.011,120.431 Z" />
        </g>
    </g>
</svg>