<?xml version="1.0" encoding="UTF-8"?>
<svg height="600" width="800" xmlns="http://www.w3.org/2000/svg" xmlns:xlink="http://www.w3.org/1999/xlink">
    <g id="Notes" font-family="'LucidaGrande', 'Lucida Grande', sans-serif" font-size="13">
        <rect fill="white" height="600.0" width="800.0" x="0.0" y="0.0" />
        <g font-size="13">
            <text x="18.0" y="176.0">Small</text>
            <text x="18.0" y="376.0">Medium</text>
            <text x="18.0" y="576.0">Large</text>
        </g>
        <g font-size="9">
            <text x="250.0" y="30.0">Ultralight</text>
            <text x="450.0" y="30.0">Regular</text>
            <text x="650.0" y="30.0">Black</text>
            <text id="template-version" fill="#505050" text-anchor="end" x="785.0" y="575.0">Template v.3.0</text>
            <a href="https://wangchujiang.com/#/app">
                <text fill="#505050" text-anchor="end" x="785.0" y="590.0">https://wangchujiang.com/#/app</text>
            </a>
        </g>
    </g>
    <g id="Guides" stroke="rgb(39, 170, 225)" stroke-width="0.5">
        <path id="Capline-S" d="M18,76 l800,0" />
        <path id="H-reference" d="M85,145.755 L87.685,145.755 L113.369,79.287 L114.052,79.287 L114.052,76 L112.148,76 L85,145.755 Z M95.693,121.536 L130.996,121.536 L130.263,119.313 L96.474,119.313 L95.693,121.536 Z M139.15,145.755 L141.787,145.755 L114.638,76 L113.466,76 L113.466,79.287 L139.15,145.755 Z" stroke="none" />
        <path id="Baseline-S" d="M18,146 l800,0" />
        <path id="left-margin-Ultralight-S" d="M211,56 l0,110" />
        <path id="right-margin-Ultralight-S" d="M319,56 l0,110" />
        <path id="left-margin-Regular-S" d="M411,56 l0,110" />
        <path id="right-margin-Regular-S" d="M519,56 l0,110" />
        <path id="left-margin-Black-S" d="M611,56 l0,110" />
        <path id="right-margin-Black-S" d="M719,56 l0,110" />
        <path id="Capline-M" d="M18,276 l800,0" />
        <path id="Baseline-M" d="M18,346 l800,0" />
        <path id="Capline-L" d="M18,476 l800,0" />
        <path id="Baseline-L" d="M18,546 l800,0" />
    </g>
    <g id="Symbols">
        <g id="Ultralight-S">
            <path d="M246.289,81.667 C253.311,81.667 259.181,85.084 266.199,94.045 L267.233,92.678 C267.93,91.776 268.637,90.903 269.36,90.074 L270.507,88.791 C274.489,84.556 278.904,81.667 284.158,81.667 C288.826,81.667 293.211,83.709 296.959,87.225 L297.758,88.006 C304.101,94.478 308.454,105.276 308.952,117.435 L308.993,118.872 L309,119.789 C309,125.293 307.973,129.905 306.001,133.356 L305.487,134.199 L305.091,134.76 C303.988,136.3 302.657,137.539 301.109,138.46 L300.138,138.98 L299.819,139.127 C299.456,139.288 299.087,139.433 298.711,139.56 C297.139,140.08 295.491,140.337 293.835,140.322 C291.913,140.322 290.183,140.077 288.562,139.534 C286.311,138.786 284.298,137.481 282.233,135.442 L281.401,134.58 C278.64,131.603 275.776,127.335 272.26,121.432 L267.017,112.595 L265.022,109.313 L258.547,120.79 L257.289,122.961 C248.856,137.239 243.832,140.333 236.972,140.333 C232.535,140.333 228.887,138.793 226.207,135.999 L225.591,135.325 C223.816,133.224 222.522,130.518 221.766,127.298 L221.521,126.125 C221.237,124.565 221.071,122.987 221.022,121.402 L221,120.049 C221.007,117.318 221.22,114.586 221.638,111.873 L222.005,109.772 C223.097,104.162 225.041,98.926 227.637,94.529 L228.403,93.283 C232.719,86.573 238.629,82.088 245.325,81.696 L246.289,81.667 Z M246.168,91.255 L245.431,91.292 C242.388,91.596 239.542,93.759 237.174,97.074 L236.668,97.804 L236.631,97.87 C234.174,101.599 232.286,106.589 231.292,111.968 L231.278,112.049 C230.777,114.775 230.523,117.541 230.519,120.313 L230.526,121.003 C230.541,121.663 230.588,122.323 230.673,122.983 L230.83,124.05 C231.168,125.894 231.773,127.379 232.612,128.479 L233.041,128.981 C234.152,130.166 235.601,130.785 237.331,130.785 C241.365,130.785 243.917,128.307 250.883,117.435 L258.858,104.968 L260.523,102.398 L260.013,101.672 C254.403,93.767 250.641,91.259 246.168,91.259 Z M283.553,89.231 L282.908,89.257 C280.58,89.433 278.424,90.573 276.235,92.678 L275.516,93.404 C273.906,95.098 272.264,97.305 270.504,100.029 L271.479,101.489 C272.139,102.493 272.806,103.542 273.496,104.635 L274.57,106.376 L279.689,114.938 L282.237,119.023 C284.375,122.418 286.014,124.889 287.4,126.657 L288.181,127.617 C289.215,128.813 290.12,129.597 291.03,130.085 L291.404,130.268 C292.236,130.635 293.079,130.774 294.036,130.774 C294.682,130.782 295.32,130.69 295.936,130.507 C297.175,130.125 298.172,129.333 298.917,128.171 L299.265,127.573 L299.547,126.979 C300.259,125.296 300.611,123.093 300.611,120.434 L300.589,118.788 C300.295,108.261 297.149,99.091 292.522,93.862 L291.877,93.169 C289.42,90.665 286.582,89.231 283.553,89.231 Z" />
        </g>
        <g id="Regular-S">
            <path d="M446.289,81.667 C453.311,81.667 459.181,85.084 466.199,94.045 L467.233,92.678 C467.93,91.776 468.637,90.903 469.36,90.074 L470.507,88.791 C474.489,84.556 478.904,81.667 484.158,81.667 C488.826,81.667 493.211,83.709 496.959,87.225 L497.758,88.006 C504.101,94.478 508.454,105.276 508.952,117.435 L508.993,118.872 L509,119.789 C509,125.293 507.973,129.905 506.001,133.356 L505.487,134.199 L505.091,134.76 C503.988,136.3 502.657,137.539 501.109,138.46 L500.138,138.98 L499.819,139.127 C499.456,139.288 499.087,139.433 498.711,139.56 C497.139,140.08 495.491,140.337 493.835,140.322 C491.913,140.322 490.183,140.077 488.562,139.534 C486.311,138.786 484.298,137.481 482.233,135.442 L481.401,134.58 C478.64,131.603 475.776,127.335 472.26,121.432 L467.017,112.595 L465.022,109.313 L458.547,120.79 L457.289,122.961 C448.856,137.239 443.832,140.333 436.972,140.333 C432.535,140.333 428.887,138.793 426.207,135.999 L425.591,135.325 C423.816,133.224 422.522,130.518 421.766,127.298 L421.521,126.125 C421.237,124.565 421.071,122.987 421.022,121.402 L421,120.049 C421.007,117.318 421.22,114.586 421.638,111.873 L422.005,109.772 C423.097,104.162 425.041,98.926 427.637,94.529 L428.403,93.283 C432.719,86.573 438.629,82.088 445.325,81.696 L446.289,81.667 Z M446.168,91.255 L445.431,91.292 C442.388,91.596 439.542,93.759 437.174,97.074 L436.668,97.804 L436.631,97.87 C434.174,101.599 432.286,106.589 431.292,111.968 L431.278,112.049 C430.777,114.775 430.523,117.541 430.519,120.313 L430.526,121.003 C430.541,121.663 430.588,122.323 430.673,122.983 L430.83,124.05 C431.168,125.894 431.773,127.379 432.612,128.479 L433.041,128.981 C434.152,130.166 435.601,130.785 437.331,130.785 C441.365,130.785 443.917,128.307 450.883,117.435 L458.858,104.968 L460.523,102.398 L460.013,101.672 C454.403,93.767 450.641,91.259 446.168,91.259 Z M483.553,89.231 L482.908,89.257 C480.58,89.433 478.424,90.573 476.235,92.678 L475.516,93.404 C473.906,95.098 472.264,97.305 470.504,100.029 L471.479,101.489 C472.139,102.493 472.806,103.542 473.496,104.635 L474.57,106.376 L479.689,114.938 L482.237,119.023 C484.375,122.418 486.014,124.889 487.4,126.657 L488.181,127.617 C489.215,128.813 490.12,129.597 491.03,130.085 L491.404,130.268 C492.236,130.635 493.079,130.774 494.036,130.774 C494.682,130.782 495.32,130.69 495.936,130.507 C497.175,130.125 498.172,129.333 498.917,128.171 L499.265,127.573 L499.547,126.979 C500.259,125.296 500.611,123.093 500.611,120.434 L500.589,118.788 C500.295,108.261 497.149,99.091 492.522,93.862 L491.877,93.169 C489.42,90.665 486.582,89.231 483.553,89.231 Z" />
        </g>
        <g id="Black-S">
            <path d="M646.289,81.667 C653.311,81.667 659.181,85.084 666.199,94.045 L667.233,92.678 C667.93,91.776 668.637,90.903 669.36,90.074 L670.507,88.791 C674.489,84.556 678.904,81.667 684.158,81.667 C688.826,81.667 693.211,83.709 696.959,87.225 L697.758,88.006 C704.101,94.478 708.454,105.276 708.952,117.435 L708.993,118.872 L709,119.789 C709,125.293 707.973,129.905 706.001,133.356 L705.487,134.199 L705.091,134.76 C703.988,136.3 702.657,137.539 701.109,138.46 L700.138,138.98 L699.819,139.127 C699.456,139.288 699.087,139.433 698.711,139.56 C697.139,140.08 695.491,140.337 693.835,140.322 C691.913,140.322 690.183,140.077 688.562,139.534 C686.311,138.786 684.298,137.481 682.233,135.442 L681.401,134.58 C678.64,131.603 675.776,127.335 672.26,121.432 L667.017,112.595 L665.022,109.313 L658.547,120.79 L657.289,122.961 C648.856,137.239 643.832,140.333 636.972,140.333 C632.535,140.333 628.887,138.793 626.207,135.999 L625.591,135.325 C623.816,133.224 622.522,130.518 621.766,127.298 L621.521,126.125 C621.237,124.565 621.07,122.987 621.022,121.402 L621,120.049 C621.007,117.318 621.22,114.586 621.638,111.873 L622.005,109.772 C623.097,104.162 625.041,98.926 627.637,94.529 L628.403,93.283 C632.719,86.573 638.629,82.088 645.325,81.696 L646.289,81.667 Z M646.168,91.255 L645.431,91.292 C642.388,91.596 639.542,93.759 637.174,97.074 L636.668,97.804 L636.631,97.87 C634.174,101.599 632.286,106.589 631.292,111.968 L631.278,112.049 C630.777,114.775 630.523,117.541 630.519,120.313 L630.526,121.003 C630.541,121.663 630.588,122.323 630.673,122.983 L630.83,124.05 C631.168,125.894 631.773,127.379 632.612,128.479 L633.041,128.981 C634.152,130.166 635.601,130.785 637.331,130.785 C641.365,130.785 643.917,128.307 650.883,117.435 L658.858,104.968 L660.523,102.398 L660.013,101.672 C654.403,93.767 650.641,91.259 646.168,91.259 Z M683.553,89.231 L682.908,89.257 C680.58,89.433 678.424,90.573 676.235,92.678 L675.516,93.404 C673.906,95.098 672.264,97.305 670.504,100.029 L671.479,101.489 C672.139,102.493 672.806,103.542 673.496,104.635 L674.57,106.376 L679.689,114.938 L682.237,119.023 C684.375,122.418 686.014,124.889 687.4,126.657 L688.181,127.617 C689.215,128.813 690.12,129.597 691.03,130.085 L691.404,130.268 C692.236,130.635 693.079,130.774 694.036,130.774 C694.682,130.782 695.32,130.69 695.936,130.507 C697.175,130.125 698.172,129.333 698.917,128.171 L699.265,127.573 L699.547,126.979 C700.259,125.296 700.611,123.093 700.611,120.434 L700.589,118.788 C700.295,108.261 697.149,99.091 692.522,93.862 L691.877,93.169 C689.42,90.665 686.582,89.231 683.553,89.231 Z" />
        </g>
    </g>
</svg>