<?xml version="1.0" encoding="UTF-8"?>
<svg height="600" width="800" xmlns="http://www.w3.org/2000/svg" xmlns:xlink="http://www.w3.org/1999/xlink">
    <g id="Notes" font-family="'LucidaGrande', 'Lucida Grande', sans-serif" font-size="13">
        <rect fill="white" height="600.0" width="800.0" x="0.0" y="0.0" />
        <g font-size="13">
            <text x="18.0" y="176.0">Small</text>
            <text x="18.0" y="376.0">Medium</text>
            <text x="18.0" y="576.0">Large</text>
        </g>
        <g font-size="9">
            <text x="250.0" y="30.0">Ultralight</text>
            <text x="450.0" y="30.0">Regular</text>
            <text x="650.0" y="30.0">Black</text>
            <text id="template-version" fill="#505050" text-anchor="end" x="785.0" y="575.0">Template v.3.0</text>
            <a href="https://wangchujiang.com/#/app">
                <text fill="#505050" text-anchor="end" x="785.0" y="590.0">https://wangchujiang.com/#/app</text>
            </a>
        </g>
    </g>
    <g id="Guides" stroke="rgb(39, 170, 225)" stroke-width="0.5">
        <path id="Capline-S" d="M18,76 l800,0" />
        <path id="H-reference" d="M85,145.755 L87.685,145.755 L113.369,79.287 L114.052,79.287 L114.052,76 L112.148,76 L85,145.755 Z M95.693,121.536 L130.996,121.536 L130.263,119.313 L96.474,119.313 L95.693,121.536 Z M139.15,145.755 L141.787,145.755 L114.638,76 L113.466,76 L113.466,79.287 L139.15,145.755 Z" stroke="none" />
        <path id="Baseline-S" d="M18,146 l800,0" />
        <path id="left-margin-Ultralight-S" d="M212.222,56 l0,110" />
        <path id="right-margin-Ultralight-S" d="M317.778,56 l0,110" />
        <path id="left-margin-Regular-S" d="M412.222,56 l0,110" />
        <path id="right-margin-Regular-S" d="M517.778,56 l0,110" />
        <path id="left-margin-Black-S" d="M612.222,56 l0,110" />
        <path id="right-margin-Black-S" d="M717.778,56 l0,110" />
        <path id="Capline-M" d="M18,276 l800,0" />
        <path id="Baseline-M" d="M18,346 l800,0" />
        <path id="Capline-L" d="M18,476 l800,0" />
        <path id="Baseline-L" d="M18,546 l800,0" />
    </g>
    <g id="Symbols">
        <g id="Ultralight-S">
            <path d="M246.423,146 C262.958,146 273.715,137.367 273.715,124.378 C273.715,114.306 267.174,107.904 255.476,105.252 L247.971,103.032 C241.383,101.573 237.537,99.823 238.443,95.351 C239.197,91.629 241.449,89.529 246.695,89.529 C263.359,89.529 269.534,95.351 269.534,95.351 L269.534,81.351 C269.534,81.351 263.522,76 246.695,76 C230.828,76 222.222,84.05 222.222,96.506 C222.222,106.578 228.188,112.439 240.286,115.219 L241.585,115.542 C243.424,116.102 245.909,116.845 249.036,117.767 C255.219,119.225 256.81,120.773 256.81,125.412 C256.81,129.651 252.338,132.062 246.427,132.062 C229.382,132.062 222.222,123.565 222.222,123.565 L222.222,139.078 C222.222,139.078 226.702,146 246.423,146 Z" />
            <path d="M297.566,144.95 C303.418,144.95 307.778,140.777 307.778,135.127 C307.778,129.356 303.543,125.303 297.566,125.303 C291.713,125.303 287.478,129.356 287.478,135.127 C287.478,140.898 291.713,144.95 297.566,144.95 Z" />
        </g>
        <g id="Regular-S">
            <path d="M446.423,146 C462.958,146 473.715,137.367 473.715,124.378 C473.715,114.306 467.174,107.904 455.476,105.252 L447.971,103.032 C441.383,101.573 437.537,99.823 438.443,95.351 C439.197,91.629 441.449,89.529 446.695,89.529 C463.359,89.529 469.534,95.351 469.534,95.351 L469.534,81.351 C469.534,81.351 463.522,76 446.695,76 C430.828,76 422.222,84.05 422.222,96.506 C422.222,106.578 428.188,112.439 440.286,115.219 L441.585,115.542 C443.424,116.102 445.909,116.845 449.036,117.767 C455.219,119.225 456.81,120.773 456.81,125.412 C456.81,129.651 452.338,132.062 446.427,132.062 C429.382,132.062 422.222,123.565 422.222,123.565 L422.222,139.078 C422.222,139.078 426.702,146 446.423,146 Z" />
            <path d="M497.566,144.95 C503.418,144.95 507.778,140.777 507.778,135.127 C507.778,129.356 503.543,125.303 497.566,125.303 C491.713,125.303 487.478,129.356 487.478,135.127 C487.478,140.898 491.713,144.95 497.566,144.95 Z" />
        </g>
        <g id="Black-S">
            <path d="M646.423,146 C662.958,146 673.715,137.367 673.715,124.378 C673.715,114.306 667.174,107.904 655.476,105.252 L647.971,103.032 C641.383,101.573 637.537,99.823 638.443,95.351 C639.197,91.629 641.449,89.529 646.695,89.529 C663.359,89.529 669.534,95.351 669.534,95.351 L669.534,81.351 C669.534,81.351 663.522,76 646.695,76 C630.828,76 622.222,84.05 622.222,96.506 C622.222,106.578 628.188,112.439 640.286,115.219 L641.585,115.542 C643.424,116.102 645.909,116.845 649.036,117.767 C655.219,119.225 656.81,120.773 656.81,125.412 C656.81,129.651 652.338,132.062 646.427,132.062 C629.382,132.062 622.222,123.565 622.222,123.565 L622.222,139.078 C622.222,139.078 626.702,146 646.423,146 Z" />
            <path d="M697.566,144.95 C703.418,144.95 707.778,140.777 707.778,135.127 C707.778,129.356 703.543,125.303 697.566,125.303 C691.713,125.303 687.478,129.356 687.478,135.127 C687.478,140.898 691.713,144.95 697.566,144.95 Z" />
        </g>
    </g>
</svg>