<?xml version="1.0" encoding="UTF-8"?>
<svg height="600" width="800" xmlns="http://www.w3.org/2000/svg" xmlns:xlink="http://www.w3.org/1999/xlink">
    <g id="Notes" font-family="'LucidaGrande', 'Lucida Grande', sans-serif" font-size="13">
        <rect fill="white" height="600.0" width="800.0" x="0.0" y="0.0" />
        <g font-size="13">
            <text x="18.0" y="176.0">Small</text>
            <text x="18.0" y="376.0">Medium</text>
            <text x="18.0" y="576.0">Large</text>
        </g>
        <g font-size="9">
            <text x="250.0" y="30.0">Ultralight</text>
            <text x="450.0" y="30.0">Regular</text>
            <text x="650.0" y="30.0">Black</text>
            <text id="template-version" fill="#505050" text-anchor="end" x="785.0" y="575.0">Template v.3.0</text>
            <a href="https://wangchujiang.com/#/app">
                <text fill="#505050" text-anchor="end" x="785.0" y="590.0">https://wangchujiang.com/#/app</text>
            </a>
        </g>
    </g>
    <g id="Guides" stroke="rgb(39, 170, 225)" stroke-width="0.5">
        <path id="Capline-S" d="M18,76 l800,0" />
        <path id="H-reference" d="M85,145.755 L87.685,145.755 L113.369,79.287 L114.052,79.287 L114.052,76 L112.148,76 L85,145.755 Z M95.693,121.536 L130.996,121.536 L130.263,119.313 L96.474,119.313 L95.693,121.536 Z M139.15,145.755 L141.787,145.755 L114.638,76 L113.466,76 L113.466,79.287 L139.15,145.755 Z" stroke="none" />
        <path id="Baseline-S" d="M18,146 l800,0" />
        <path id="left-margin-Ultralight-S" d="M221,56 l0,110" />
        <path id="right-margin-Ultralight-S" d="M309,56 l0,110" />
        <path id="left-margin-Regular-S" d="M421,56 l0,110" />
        <path id="right-margin-Regular-S" d="M509,56 l0,110" />
        <path id="left-margin-Black-S" d="M621,56 l0,110" />
        <path id="right-margin-Black-S" d="M709,56 l0,110" />
        <path id="Capline-M" d="M18,276 l800,0" />
        <path id="Baseline-M" d="M18,346 l800,0" />
        <path id="Capline-L" d="M18,476 l800,0" />
        <path id="Baseline-L" d="M18,546 l800,0" />
    </g>
    <g id="Symbols">
        <g id="Ultralight-S">
            <path d="M287.706,76 L287.706,97.21 L295.625,97.21 L295.625,127.392 L287.065,127.392 L287.065,146 L266.54,127.934 L266.54,145.857 L263.358,145.857 L263.358,127.914 L242.81,146 L242.81,127.144 L234.375,127.144 L234.375,96.965 L242.787,96.965 L242.787,76 L263.358,94.941 L263.358,76.554 L266.537,76.554 L266.537,95.483 L287.709,76 Z M266.54,102.378 L266.54,123.725 L283.883,138.991 L283.883,118.117 L266.54,102.375 Z M263.335,102.145 L245.992,117.889 L245.992,138.991 L263.335,123.725 L263.335,102.148 Z M287.065,124.253 L292.443,124.253 L292.443,100.351 L269.258,100.351 L287.065,116.51 L287.065,124.253 Z M260.867,100.103 L237.554,100.103 L237.554,124.005 L242.804,124.005 L242.804,116.492 L260.864,100.1 Z M245.969,83.222 L245.969,96.959 L260.888,96.959 L245.969,83.222 Z M284.524,83.222 L269.605,96.959 L284.524,96.959 L284.524,83.222 Z" />
        </g>
        <g id="Regular-S">
            <path d="M487.706,76 L487.706,97.21 L495.625,97.21 L495.625,127.392 L487.065,127.392 L487.065,146 L466.54,127.934 L466.54,145.857 L463.358,145.857 L463.358,127.914 L442.81,146 L442.81,127.144 L434.375,127.144 L434.375,96.965 L442.787,96.965 L442.787,76 L463.358,94.941 L463.358,76.554 L466.537,76.554 L466.537,95.483 L487.709,76 Z M466.54,102.378 L466.54,123.725 L483.883,138.991 L483.883,118.117 L466.54,102.375 Z M463.335,102.145 L445.992,117.889 L445.992,138.991 L463.335,123.725 L463.335,102.148 Z M487.065,124.253 L492.443,124.253 L492.443,100.351 L469.258,100.351 L487.065,116.51 L487.065,124.253 Z M460.867,100.103 L437.554,100.103 L437.554,124.005 L442.804,124.005 L442.804,116.492 L460.864,100.1 Z M445.969,83.222 L445.969,96.959 L460.888,96.959 L445.969,83.222 Z M484.524,83.222 L469.605,96.959 L484.524,96.959 L484.524,83.222 Z" />
        </g>
        <g id="Black-S">
            <path d="M687.706,76 L687.706,97.21 L695.625,97.21 L695.625,127.392 L687.065,127.392 L687.065,146 L666.54,127.934 L666.54,145.857 L663.358,145.857 L663.358,127.914 L642.81,146 L642.81,127.144 L634.375,127.144 L634.375,96.965 L642.787,96.965 L642.787,76 L663.358,94.941 L663.358,76.554 L666.537,76.554 L666.537,95.483 L687.709,76 Z M666.54,102.378 L666.54,123.725 L683.883,138.991 L683.883,118.117 L666.54,102.375 Z M663.335,102.145 L645.992,117.889 L645.992,138.991 L663.335,123.725 L663.335,102.148 Z M687.065,124.253 L692.443,124.253 L692.443,100.351 L669.258,100.351 L687.065,116.51 L687.065,124.253 Z M660.867,100.103 L637.554,100.103 L637.554,124.005 L642.804,124.005 L642.804,116.492 L660.864,100.1 Z M645.969,83.222 L645.969,96.959 L660.888,96.959 L645.969,83.222 Z M684.524,83.222 L669.605,96.959 L684.524,96.959 L684.524,83.222 Z" />
        </g>
    </g>
</svg>