<?xml version="1.0" encoding="UTF-8"?>
<svg height="600" width="800" xmlns="http://www.w3.org/2000/svg" xmlns:xlink="http://www.w3.org/1999/xlink">
    <g id="Notes" font-family="'LucidaGrande', 'Lucida Grande', sans-serif" font-size="13">
        <rect fill="white" height="600.0" width="800.0" x="0.0" y="0.0" />
        <g font-size="13">
            <text x="18.0" y="176.0">Small</text>
            <text x="18.0" y="376.0">Medium</text>
            <text x="18.0" y="576.0">Large</text>
        </g>
        <g font-size="9">
            <text x="250.0" y="30.0">Ultralight</text>
            <text x="450.0" y="30.0">Regular</text>
            <text x="650.0" y="30.0">Black</text>
            <text id="template-version" fill="#505050" text-anchor="end" x="785.0" y="575.0">Template v.3.0</text>
            <a href="https://wangchujiang.com/#/app">
                <text fill="#505050" text-anchor="end" x="785.0" y="590.0">https://wangchujiang.com/#/app</text>
            </a>
        </g>
    </g>
    <g id="Guides" stroke="rgb(39, 170, 225)" stroke-width="0.5">
        <path id="Capline-S" d="M18,76 l800,0" />
        <path id="H-reference" d="M85,145.755 L87.685,145.755 L113.369,79.287 L114.052,79.287 L114.052,76 L112.148,76 L85,145.755 Z M95.693,121.536 L130.996,121.536 L130.263,119.313 L96.474,119.313 L95.693,121.536 Z M139.15,145.755 L141.787,145.755 L114.638,76 L113.466,76 L113.466,79.287 L139.15,145.755 Z" stroke="none" />
        <path id="Baseline-S" d="M18,146 l800,0" />
        <path id="left-margin-Ultralight-S" d="M214.474,56 l0,110" />
        <path id="right-margin-Ultralight-S" d="M315.526,56 l0,110" />
        <path id="left-margin-Regular-S" d="M414.474,56 l0,110" />
        <path id="right-margin-Regular-S" d="M515.526,56 l0,110" />
        <path id="left-margin-Black-S" d="M614.474,56 l0,110" />
        <path id="right-margin-Black-S" d="M715.526,56 l0,110" />
        <path id="Capline-M" d="M18,276 l800,0" />
        <path id="Baseline-M" d="M18,346 l800,0" />
        <path id="Capline-L" d="M18,476 l800,0" />
        <path id="Baseline-L" d="M18,546 l800,0" />
    </g>
    <g id="Symbols">
        <g id="Ultralight-S">
            <path d="M275.846,133.426 L269.568,131.786 L269.568,101.826 L276.288,100.124 C279.973,99.188 283.067,98.426 283.215,98.455 C283.333,98.455 283.421,106.689 283.421,116.773 L283.421,135.095 L282.773,135.065 C282.389,135.065 279.265,134.303 275.846,133.422 Z" />
            <path d="M246.579,125.892 C246.579,115.812 246.667,107.544 246.815,107.544 C246.933,107.515 250.027,108.281 253.741,109.217 L260.432,110.915 L260.373,125.836 L260.284,140.754 L254.272,142.308 C250.971,143.156 247.876,143.948 247.434,144.036 L246.579,144.243 L246.579,125.895 Z" />
            <path d="M291.674,110.915 C291.674,77.647 291.703,75.86 292.204,76.007 C292.47,76.096 295.093,76.77 298.011,77.503 C300.928,78.266 303.817,78.995 304.436,79.143 L305.526,79.437 L305.467,110.974 L305.379,142.541 L299.396,144.066 C296.124,144.913 293.03,145.676 292.558,145.797 L291.674,146 L291.674,110.915 Z" />
            <path d="M224.474,111.033 C224.474,93.798 224.562,79.699 224.709,79.699 C224.827,79.699 227.922,80.461 231.606,81.371 L238.326,83.07 L238.326,111.004 C238.326,126.33 238.267,138.908 238.208,138.908 C238.12,138.908 234.996,139.7 231.282,140.639 L224.474,142.364 L224.474,111.029 Z" />
        </g>
        <g id="Regular-S">
            <path d="M475.846,133.426 L469.568,131.786 L469.568,101.826 L476.288,100.124 C479.973,99.188 483.067,98.426 483.215,98.455 C483.333,98.455 483.421,106.689 483.421,116.773 L483.421,135.095 L482.773,135.065 C482.389,135.065 479.265,134.303 475.846,133.422 Z" />
            <path d="M446.579,125.892 C446.579,115.812 446.667,107.544 446.815,107.544 C446.933,107.515 450.027,108.281 453.741,109.217 L460.432,110.915 L460.373,125.836 L460.284,140.754 L454.272,142.308 C450.97,143.156 447.876,143.948 447.434,144.036 L446.579,144.243 L446.579,125.895 Z" />
            <path d="M491.674,110.915 C491.674,77.647 491.703,75.86 492.204,76.007 C492.47,76.096 495.093,76.77 498.011,77.503 C500.928,78.266 503.817,78.995 504.436,79.143 L505.526,79.437 L505.467,110.974 L505.379,142.541 L499.396,144.066 C496.124,144.913 493.03,145.676 492.558,145.797 L491.674,146 L491.674,110.915 Z" />
            <path d="M424.474,111.033 C424.474,93.798 424.562,79.699 424.709,79.699 C424.827,79.699 427.922,80.461 431.606,81.371 L438.326,83.07 L438.326,111.004 C438.326,126.33 438.267,138.908 438.208,138.908 C438.12,138.908 434.996,139.7 431.282,140.639 L424.474,142.364 L424.474,111.029 Z" />
        </g>
        <g id="Black-S">
            <path d="M675.846,133.426 L669.568,131.786 L669.568,101.826 L676.288,100.124 C679.973,99.188 683.067,98.426 683.215,98.455 C683.333,98.455 683.421,106.689 683.421,116.773 L683.421,135.095 L682.773,135.065 C682.39,135.065 679.265,134.303 675.846,133.422 Z" />
            <path d="M646.579,125.892 C646.579,115.812 646.667,107.544 646.815,107.544 C646.933,107.515 650.027,108.281 653.741,109.217 L660.432,110.915 L660.373,125.836 L660.284,140.754 L654.272,142.308 C650.971,143.156 647.876,143.948 647.434,144.036 L646.579,144.243 L646.579,125.895 Z" />
            <path d="M691.674,110.915 C691.674,77.647 691.703,75.86 692.204,76.007 C692.47,76.096 695.093,76.77 698.011,77.503 C700.929,78.266 703.817,78.995 704.436,79.143 L705.526,79.437 L705.467,110.974 L705.379,142.541 L699.396,144.066 C696.124,144.913 693.03,145.676 692.558,145.797 L691.674,146 L691.674,110.915 Z" />
            <path d="M624.474,111.033 C624.474,93.798 624.562,79.699 624.709,79.699 C624.827,79.699 627.922,80.461 631.606,81.371 L638.326,83.07 L638.326,111.004 C638.326,126.33 638.267,138.908 638.208,138.908 C638.12,138.908 634.996,139.7 631.282,140.639 L624.474,142.364 L624.474,111.029 Z" />
        </g>
    </g>
</svg>