<?xml version="1.0" encoding="UTF-8"?>
<svg height="600" width="800" xmlns="http://www.w3.org/2000/svg" xmlns:xlink="http://www.w3.org/1999/xlink">
    <g id="Notes" font-family="'LucidaGrande', 'Lucida Grande', sans-serif" font-size="13">
        <rect fill="white" height="600.0" width="800.0" x="0.0" y="0.0" />
        <g font-size="13">
            <text x="18.0" y="176.0">Small</text>
            <text x="18.0" y="376.0">Medium</text>
            <text x="18.0" y="576.0">Large</text>
        </g>
        <g font-size="9">
            <text x="250.0" y="30.0">Ultralight</text>
            <text x="450.0" y="30.0">Regular</text>
            <text x="650.0" y="30.0">Black</text>
            <text id="template-version" fill="#505050" text-anchor="end" x="785.0" y="575.0">Template v.3.0</text>
            <a href="https://wangchujiang.com/#/app">
                <text fill="#505050" text-anchor="end" x="785.0" y="590.0">https://wangchujiang.com/#/app</text>
            </a>
        </g>
    </g>
    <g id="Guides" stroke="rgb(39, 170, 225)" stroke-width="0.5">
        <path id="Capline-S" d="M18,76 l800,0" />
        <path id="H-reference" d="M85,145.755 L87.685,145.755 L113.369,79.287 L114.052,79.287 L114.052,76 L112.148,76 L85,145.755 Z M95.693,121.536 L130.996,121.536 L130.263,119.313 L96.474,119.313 L95.693,121.536 Z M139.15,145.755 L141.787,145.755 L114.638,76 L113.466,76 L113.466,79.287 L139.15,145.755 Z" stroke="none" />
        <path id="Baseline-S" d="M18,146 l800,0" />
        <path id="left-margin-Ultralight-S" d="M216.58,56 l0,110" />
        <path id="right-margin-Ultralight-S" d="M313.42,56 l0,110" />
        <path id="left-margin-Regular-S" d="M416.58,56 l0,110" />
        <path id="right-margin-Regular-S" d="M513.42,56 l0,110" />
        <path id="left-margin-Black-S" d="M616.58,56 l0,110" />
        <path id="right-margin-Black-S" d="M713.42,56 l0,110" />
        <path id="Capline-M" d="M18,276 l800,0" />
        <path id="Baseline-M" d="M18,346 l800,0" />
        <path id="Capline-L" d="M18,476 l800,0" />
        <path id="Baseline-L" d="M18,546 l800,0" />
    </g>
    <g id="Symbols">
        <g id="Ultralight-S">
            <path d="M272.027,94.037 C270.168,94.185 268.02,94.333 265.872,94.621 C262.583,95.044 259.294,95.621 256.578,96.906 C251.287,99.062 247.709,103.642 247.709,110.376 C247.709,118.833 253.146,123.122 260.008,123.122 C262.301,123.122 264.158,122.842 265.872,122.411 C268.595,121.552 270.884,119.974 273.6,117.115 C275.177,119.263 275.603,120.267 278.323,122.558 C279.037,122.847 279.751,122.847 280.324,122.415 C282.04,120.985 285.04,118.406 286.617,116.974 C287.329,116.395 287.188,115.542 286.761,114.822 C285.183,112.817 283.615,111.094 283.615,107.233 L283.615,94.339 C283.615,88.887 284.038,83.878 280.042,80.157 C276.748,77.139 271.6,76 267.599,76 C267.027,76 266.456,76 265.881,76 C258.587,76.427 250.866,79.573 249.145,88.607 C248.863,89.746 249.725,90.182 250.295,90.328 L258.303,91.334 C259.162,91.182 259.589,90.471 259.73,89.751 C260.453,86.607 263.024,85.03 265.883,84.741 C266.029,84.741 266.172,84.741 266.458,84.741 C268.172,84.741 270.029,85.461 271.034,86.882 C272.168,88.607 272.034,90.903 272.034,92.903 L272.027,94.037 L272.027,94.037 Z M270.454,111.086 C269.454,113.093 267.736,114.381 265.877,114.813 C265.592,114.813 265.167,114.96 264.736,114.96 C261.59,114.96 259.724,112.524 259.724,108.94 C259.724,104.362 262.444,102.206 265.877,101.206 C267.736,100.778 269.884,100.631 272.029,100.631 L272.029,102.351 C272.027,105.649 272.162,108.224 270.454,111.086 Z M303.42,130.978 L303.42,131.445 C303.345,134.245 301.867,139.619 298.37,142.576 C297.671,143.119 296.97,142.809 297.279,142.025 C298.296,139.541 300.622,133.775 299.535,132.453 C298.765,131.445 295.573,131.521 292.855,131.755 C291.614,131.911 290.523,131.983 289.668,132.152 C288.893,132.223 288.733,131.529 289.514,130.987 C290.525,130.286 291.616,129.744 292.857,129.347 C297.281,128.028 302.416,128.804 303.117,129.663 C303.269,129.885 303.42,130.351 303.42,130.978 Z M296.04,136.424 C295.029,137.198 293.946,137.903 292.855,138.535 C284.695,143.44 274.13,146 264.963,146 C250.195,146 236.987,140.55 226.966,131.445 C226.107,130.742 226.808,129.733 227.819,130.275 C238.619,136.58 251.983,140.398 265.814,140.398 C274.52,140.398 283.912,138.762 292.853,135.254 C293.471,135.029 294.172,134.708 294.794,134.482 C296.194,133.851 297.439,135.419 296.04,136.424 Z" />
        </g>
        <g id="Regular-S">
            <path d="M472.027,94.037 C470.168,94.185 468.02,94.333 465.872,94.621 C462.583,95.044 459.294,95.621 456.578,96.906 C451.287,99.062 447.709,103.642 447.709,110.376 C447.709,118.833 453.146,123.122 460.008,123.122 C462.301,123.122 464.158,122.842 465.872,122.411 C468.595,121.552 470.884,119.974 473.6,117.115 C475.177,119.263 475.603,120.267 478.323,122.558 C479.037,122.847 479.751,122.847 480.324,122.415 C482.04,120.985 485.04,118.406 486.617,116.974 C487.329,116.395 487.188,115.542 486.761,114.822 C485.183,112.817 483.615,111.094 483.615,107.233 L483.615,94.339 C483.615,88.887 484.038,83.878 480.042,80.157 C476.748,77.139 471.6,76 467.599,76 C467.027,76 466.456,76 465.881,76 C458.587,76.427 450.866,79.573 449.145,88.607 C448.863,89.746 449.725,90.182 450.295,90.328 L458.303,91.334 C459.162,91.182 459.589,90.471 459.73,89.751 C460.453,86.607 463.024,85.03 465.883,84.741 C466.029,84.741 466.172,84.741 466.458,84.741 C468.172,84.741 470.029,85.461 471.034,86.882 C472.168,88.607 472.034,90.903 472.034,92.903 L472.027,94.037 L472.027,94.037 Z M470.454,111.086 C469.454,113.093 467.736,114.381 465.877,114.813 C465.592,114.813 465.167,114.96 464.736,114.96 C461.59,114.96 459.724,112.524 459.724,108.94 C459.724,104.362 462.445,102.206 465.877,101.206 C467.736,100.778 469.884,100.631 472.03,100.631 L472.03,102.351 C472.027,105.649 472.162,108.224 470.454,111.086 Z M503.421,130.978 L503.421,131.445 C503.345,134.245 501.867,139.619 498.37,142.576 C497.671,143.119 496.97,142.809 497.279,142.025 C498.296,139.541 500.622,133.775 499.535,132.453 C498.765,131.445 495.573,131.521 492.855,131.755 C491.614,131.911 490.523,131.983 489.668,132.152 C488.893,132.223 488.733,131.529 489.514,130.987 C490.525,130.286 491.616,129.744 492.857,129.347 C497.281,128.028 502.416,128.804 503.117,129.663 C503.269,129.885 503.421,130.351 503.421,130.978 Z M496.04,136.424 C495.029,137.198 493.946,137.903 492.855,138.535 C484.695,143.44 474.13,146 464.963,146 C450.195,146 436.987,140.55 426.966,131.445 C426.107,130.742 426.808,129.733 427.819,130.275 C438.619,136.58 451.983,140.398 465.814,140.398 C474.52,140.398 483.912,138.762 492.853,135.254 C493.471,135.029 494.172,134.708 494.794,134.482 C496.194,133.851 497.439,135.419 496.04,136.424 Z" />
        </g>
        <g id="Black-S">
            <path d="M672.027,94.037 C670.168,94.185 668.02,94.333 665.872,94.621 C662.583,95.044 659.294,95.621 656.578,96.906 C651.287,99.062 647.709,103.642 647.709,110.376 C647.709,118.833 653.146,123.122 660.008,123.122 C662.301,123.122 664.158,122.842 665.872,122.411 C668.595,121.552 670.884,119.974 673.6,117.115 C675.177,119.263 675.603,120.267 678.323,122.558 C679.037,122.847 679.751,122.847 680.324,122.415 C682.04,120.985 685.04,118.406 686.617,116.974 C687.329,116.395 687.188,115.542 686.761,114.822 C685.183,112.817 683.615,111.094 683.615,107.233 L683.615,94.339 C683.615,88.887 684.038,83.878 680.042,80.157 C676.748,77.139 671.6,76 667.599,76 C667.027,76 666.456,76 665.881,76 C658.587,76.427 650.866,79.573 649.145,88.607 C648.863,89.746 649.725,90.182 650.295,90.328 L658.303,91.334 C659.162,91.182 659.589,90.471 659.73,89.751 C660.453,86.607 663.024,85.03 665.883,84.741 C666.029,84.741 666.172,84.741 666.458,84.741 C668.172,84.741 670.029,85.461 671.034,86.882 C672.168,88.607 672.034,90.903 672.034,92.903 L672.027,94.037 L672.027,94.037 Z M670.454,111.086 C669.454,113.093 667.736,114.381 665.877,114.813 C665.593,114.813 665.167,114.96 664.736,114.96 C661.59,114.96 659.724,112.524 659.724,108.94 C659.724,104.362 662.445,102.206 665.877,101.206 C667.736,100.778 669.884,100.631 672.03,100.631 L672.03,102.351 C672.027,105.649 672.162,108.224 670.454,111.086 Z M703.42,130.978 L703.42,131.445 C703.345,134.245 701.867,139.619 698.37,142.576 C697.671,143.119 696.97,142.809 697.279,142.025 C698.296,139.541 700.622,133.775 699.535,132.453 C698.765,131.445 695.573,131.521 692.855,131.755 C691.614,131.911 690.523,131.983 689.668,132.152 C688.893,132.223 688.733,131.529 689.514,130.987 C690.525,130.286 691.616,129.744 692.857,129.347 C697.281,128.028 702.416,128.804 703.117,129.663 C703.269,129.885 703.42,130.351 703.42,130.978 Z M696.04,136.424 C695.029,137.198 693.946,137.903 692.855,138.535 C684.695,143.44 674.13,146 664.963,146 C650.195,146 636.987,140.55 626.966,131.445 C626.107,130.742 626.808,129.733 627.819,130.275 C638.619,136.58 651.983,140.398 665.814,140.398 C674.52,140.398 683.912,138.762 692.853,135.254 C693.471,135.029 694.172,134.708 694.794,134.482 C696.194,133.851 697.439,135.419 696.04,136.424 Z" />
        </g>
    </g>
</svg>