<?xml version="1.0" encoding="UTF-8"?>
<svg height="600" width="800" xmlns="http://www.w3.org/2000/svg" xmlns:xlink="http://www.w3.org/1999/xlink">
    <g id="Notes" font-family="'LucidaGrande', 'Lucida Grande', sans-serif" font-size="13">
        <rect fill="white" height="600.0" width="800.0" x="0.0" y="0.0" />
        <g font-size="13">
            <text x="18.0" y="176.0">Small</text>
            <text x="18.0" y="376.0">Medium</text>
            <text x="18.0" y="576.0">Large</text>
        </g>
        <g font-size="9">
            <text x="250.0" y="30.0">Ultralight</text>
            <text x="450.0" y="30.0">Regular</text>
            <text x="650.0" y="30.0">Black</text>
            <text id="template-version" fill="#505050" text-anchor="end" x="785.0" y="575.0">Template v.3.0</text>
            <a href="https://wangchujiang.com/#/app">
                <text fill="#505050" text-anchor="end" x="785.0" y="590.0">https://wangchujiang.com/#/app</text>
            </a>
        </g>
    </g>
    <g id="Guides" stroke="rgb(39, 170, 225)" stroke-width="0.5">
        <path id="Capline-S" d="M18,76 l800,0" />
        <path id="H-reference" d="M85,145.755 L87.685,145.755 L113.369,79.287 L114.052,79.287 L114.052,76 L112.148,76 L85,145.755 Z M95.693,121.536 L130.996,121.536 L130.263,119.313 L96.474,119.313 L95.693,121.536 Z M139.15,145.755 L141.787,145.755 L114.638,76 L113.466,76 L113.466,79.287 L139.15,145.755 Z" stroke="none" />
        <path id="Baseline-S" d="M18,146 l800,0" />
        <path id="left-margin-Ultralight-S" d="M211,56 l0,110" />
        <path id="right-margin-Ultralight-S" d="M319,56 l0,110" />
        <path id="left-margin-Regular-S" d="M411,56 l0,110" />
        <path id="right-margin-Regular-S" d="M519,56 l0,110" />
        <path id="left-margin-Black-S" d="M611,56 l0,110" />
        <path id="right-margin-Black-S" d="M719,56 l0,110" />
        <path id="Capline-M" d="M18,276 l800,0" />
        <path id="Baseline-M" d="M18,346 l800,0" />
        <path id="Capline-L" d="M18,476 l800,0" />
        <path id="Baseline-L" d="M18,546 l800,0" />
    </g>
    <g id="Symbols">
        <g id="Ultralight-S">
            <path d="M245.755,130.132 L244.351,125.582 L231.399,125.582 L229.991,130.132 L221,130.132 L234.001,92.678 L241.753,92.678 L254.914,130.132 L245.755,130.132 Z M237.904,103.376 L233.427,118.787 L242.273,118.787 L237.904,103.376 Z M255.913,92.678 L264.445,92.678 L264.445,130.132 L255.913,130.132 L255.913,92.678 Z M266.741,122.479 C267.123,120.631 267.801,118.86 268.746,117.238 C269.565,115.864 270.59,114.636 271.787,113.599 C273.012,112.555 274.305,111.609 275.663,110.764 C276.735,110.121 277.729,109.501 278.651,108.916 C279.501,108.38 280.308,107.783 281.07,107.125 C281.728,106.559 282.282,105.882 282.707,105.117 C283.117,104.355 283.319,103.498 283.308,102.63 C283.308,101.13 282.91,100.051 282.11,99.393 C281.272,98.719 280.22,98.367 279.145,98.402 C277.921,98.367 276.733,98.82 275.843,99.661 C274.959,100.499 274.515,101.899 274.515,103.862 L266.148,103.862 C266.132,102.234 266.423,100.618 267.005,99.098 C267.563,97.656 268.424,96.359 269.53,95.299 C270.701,94.189 272.082,93.332 273.586,92.785 C275.35,92.149 277.216,91.839 279.091,91.871 C280.698,91.863 282.305,92.089 283.851,92.54 C285.29,92.95 286.644,93.638 287.83,94.572 C288.997,95.513 289.935,96.722 290.562,98.103 C291.27,99.706 291.614,101.451 291.576,103.211 C291.595,104.703 291.255,106.173 290.585,107.496 C289.946,108.751 289.131,109.907 288.167,110.917 C287.226,111.908 286.189,112.792 285.075,113.568 C283.966,114.334 282.956,114.984 282.057,115.52 C280.809,116.377 279.776,117.115 278.961,117.739 C278.261,118.26 277.608,118.843 277.01,119.48 C276.56,119.956 276.215,120.522 275.996,121.14 C275.796,121.78 275.701,122.448 275.713,123.118 L291.316,123.118 L291.316,130.132 L266.041,130.132 C265.995,127.563 266.23,124.997 266.741,122.479 Z M292.93,99.255 C294.388,99.285 295.845,99.151 297.273,98.853 C298.23,98.666 299.125,98.256 299.898,97.652 C300.521,97.12 300.969,96.412 301.199,95.616 C301.459,94.66 301.581,93.665 301.562,92.67 L309,92.67 L309,130.132 L300.418,130.132 L300.418,105.358 L292.93,105.358 L292.93,99.255 Z" />
        </g>
        <g id="Regular-S">
            <path d="M445.755,130.132 L444.351,125.582 L431.399,125.582 L429.991,130.132 L421,130.132 L434.001,92.678 L441.753,92.678 L454.914,130.132 L445.755,130.132 Z M437.904,103.376 L433.427,118.787 L442.273,118.787 L437.904,103.376 Z M455.913,92.678 L464.445,92.678 L464.445,130.132 L455.913,130.132 L455.913,92.678 Z M466.741,122.479 C467.123,120.631 467.801,118.86 468.746,117.238 C469.565,115.864 470.59,114.636 471.787,113.599 C473.012,112.555 474.305,111.609 475.663,110.764 C476.735,110.121 477.729,109.501 478.651,108.916 C479.501,108.38 480.308,107.783 481.07,107.125 C481.728,106.559 482.282,105.882 482.707,105.117 C483.117,104.355 483.319,103.498 483.308,102.63 C483.308,101.13 482.91,100.051 482.11,99.393 C481.272,98.719 480.22,98.367 479.145,98.402 C477.921,98.367 476.733,98.82 475.843,99.661 C474.959,100.499 474.515,101.899 474.515,103.862 L466.148,103.862 C466.132,102.234 466.423,100.618 467.005,99.098 C467.563,97.656 468.424,96.359 469.53,95.299 C470.701,94.189 472.082,93.332 473.586,92.785 C475.35,92.149 477.216,91.839 479.091,91.871 C480.698,91.863 482.305,92.089 483.851,92.54 C485.29,92.95 486.644,93.638 487.83,94.572 C488.997,95.513 489.935,96.722 490.562,98.103 C491.27,99.706 491.614,101.451 491.576,103.211 C491.595,104.703 491.255,106.173 490.585,107.496 C489.946,108.751 489.131,109.907 488.167,110.917 C487.226,111.908 486.189,112.792 485.075,113.568 C483.966,114.334 482.956,114.984 482.057,115.52 C480.809,116.377 479.776,117.115 478.961,117.739 C478.261,118.26 477.608,118.843 477.01,119.48 C476.56,119.956 476.215,120.522 475.996,121.14 C475.796,121.78 475.701,122.448 475.713,123.118 L491.316,123.118 L491.316,130.132 L466.041,130.132 C465.995,127.563 466.23,124.997 466.741,122.479 Z M492.93,99.255 C494.388,99.285 495.845,99.151 497.273,98.853 C498.23,98.666 499.125,98.256 499.898,97.652 C500.521,97.12 500.969,96.412 501.199,95.616 C501.459,94.66 501.581,93.665 501.562,92.67 L509,92.67 L509,130.132 L500.418,130.132 L500.418,105.358 L492.93,105.358 L492.93,99.255 Z" />
        </g>
        <g id="Black-S">
            <path d="M645.755,130.132 L644.351,125.582 L631.399,125.582 L629.991,130.132 L621,130.132 L634.001,92.678 L641.753,92.678 L654.914,130.132 L645.755,130.132 Z M637.904,103.376 L633.427,118.787 L642.273,118.787 L637.904,103.376 Z M655.913,92.678 L664.445,92.678 L664.445,130.132 L655.913,130.132 L655.913,92.678 Z M666.741,122.479 C667.123,120.631 667.801,118.86 668.746,117.238 C669.565,115.864 670.59,114.636 671.787,113.599 C673.012,112.555 674.305,111.609 675.663,110.764 C676.735,110.121 677.729,109.501 678.651,108.916 C679.501,108.38 680.308,107.783 681.07,107.125 C681.728,106.559 682.282,105.882 682.707,105.117 C683.117,104.355 683.319,103.498 683.308,102.63 C683.308,101.13 682.91,100.051 682.11,99.393 C681.272,98.719 680.22,98.367 679.145,98.402 C677.921,98.367 676.733,98.82 675.843,99.661 C674.959,100.499 674.516,101.899 674.516,103.862 L666.148,103.862 C666.132,102.234 666.423,100.618 667.005,99.098 C667.563,97.656 668.424,96.359 669.53,95.299 C670.701,94.189 672.082,93.332 673.586,92.785 C675.35,92.149 677.216,91.839 679.091,91.871 C680.698,91.863 682.305,92.089 683.851,92.54 C685.29,92.95 686.644,93.638 687.83,94.572 C688.997,95.513 689.935,96.722 690.562,98.103 C691.27,99.706 691.614,101.451 691.576,103.211 C691.595,104.703 691.255,106.173 690.585,107.496 C689.946,108.751 689.131,109.907 688.167,110.917 C687.226,111.908 686.189,112.792 685.075,113.568 C683.966,114.334 682.956,114.984 682.057,115.52 C680.809,116.377 679.776,117.115 678.961,117.739 C678.261,118.26 677.608,118.843 677.01,119.48 C676.56,119.956 676.215,120.522 675.996,121.14 C675.796,121.78 675.701,122.448 675.713,123.118 L691.316,123.118 L691.316,130.132 L666.041,130.132 C665.995,127.563 666.23,124.997 666.741,122.479 Z M692.93,99.255 C694.388,99.285 695.845,99.151 697.273,98.853 C698.23,98.666 699.125,98.256 699.898,97.652 C700.521,97.12 700.969,96.412 701.199,95.616 C701.459,94.66 701.581,93.665 701.562,92.67 L709,92.67 L709,130.132 L700.418,130.132 L700.418,105.358 L692.93,105.358 L692.93,99.255 Z" />
        </g>
    </g>
</svg>